<svg id="facebook-logo" xmlns="http://www.w3.org/2000/svg" width="8.075" height="14.936" viewBox="0 0 8.075 14.936">
  <path id="Path_576" data-name="Path 576" d="M29.848,0,27.911,0a3.4,3.4,0,0,0-3.582,3.676V5.371H22.382a.3.3,0,0,0-.3.3V8.131a.3.3,0,0,0,.3.3h1.947v6.2a.3.3,0,0,0,.3.3h2.541a.3.3,0,0,0,.3-.3v-6.2h2.277a.3.3,0,0,0,.3-.3V5.675a.3.3,0,0,0-.3-.3H27.479V3.934c0-.691.165-1.041,1.064-1.041h1.3a.3.3,0,0,0,.3-.3V.308A.3.3,0,0,0,29.848,0Z" transform="translate(-22.077)" fill="#fff"/>
</svg>
