<svg id="instagram" xmlns="http://www.w3.org/2000/svg" width="17.524" height="17.524" viewBox="0 0 17.524 17.524">
  <g id="Group_194" data-name="Group 194">
    <g id="Group_193" data-name="Group 193">
      <path id="Path_579" data-name="Path 579" d="M12.048,0H5.476A5.477,5.477,0,0,0,0,5.476v6.572a5.477,5.477,0,0,0,5.476,5.476h6.572a5.477,5.477,0,0,0,5.476-5.476V5.476A5.477,5.477,0,0,0,12.048,0Zm3.833,12.048a3.838,3.838,0,0,1-3.833,3.833H5.476a3.838,3.838,0,0,1-3.833-3.833V5.476A3.838,3.838,0,0,1,5.476,1.643h6.572a3.838,3.838,0,0,1,3.833,3.833Z" transform="translate(0 0)" fill="#fff"/>
    </g>
  </g>
  <g id="Group_196" data-name="Group 196" transform="translate(4.381 4.381)">
    <g id="Group_195" data-name="Group 195">
      <path id="Path_580" data-name="Path 580" d="M132.381,128a4.381,4.381,0,1,0,4.381,4.381A4.381,4.381,0,0,0,132.381,128Zm0,7.119a2.738,2.738,0,1,1,2.738-2.738A2.742,2.742,0,0,1,132.381,135.119Z" transform="translate(-128 -128)" fill="#fff"/>
    </g>
  </g>
  <g id="Group_198" data-name="Group 198" transform="translate(12.888 3.469)">
    <g id="Group_197" data-name="Group 197">
      <circle id="Ellipse_154" data-name="Ellipse 154" cx="0.584" cy="0.584" r="0.584" fill="#fff"/>
    </g>
  </g>
</svg>
