<svg id="linkedin" xmlns="http://www.w3.org/2000/svg" width="16.575" height="15.838" viewBox="0 0 16.575 15.838">
  <path id="LinkedIn-2" data-name="LinkedIn" d="M16.575,19.269V25.4H13.023V19.679c0-1.436-.514-2.417-1.8-2.417a1.944,1.944,0,0,0-1.823,1.3,2.431,2.431,0,0,0-.118.866V25.4H5.728s.048-9.684,0-10.687H9.282v1.515l-.023.035h.023v-.035a3.528,3.528,0,0,1,3.2-1.766C14.822,14.459,16.575,15.986,16.575,19.269ZM2.011,9.558a1.852,1.852,0,1,0-.047,3.694h.024a1.853,1.853,0,1,0,.023-3.694ZM.211,25.4H3.764V14.71H.211Z" transform="translate(0 -9.558)" fill="#fff"/>
</svg>
