<svg xmlns="http://www.w3.org/2000/svg" width="25.317" height="25.427" viewBox="0 0 25.317 25.427">
  <g id="whatsapp" transform="translate(0)">
    <path id="Path_7944" data-name="Path 7944" d="M.541,25.427a.541.541,0,0,1-.522-.684l1.653-6.036a12.608,12.608,0,1,1,11.037,6.511H12.7A12.633,12.633,0,0,1,6.87,23.786L.678,25.409A.544.544,0,0,1,.541,25.427Zm0,0" fill="#e5e5e5"/>
    <path id="Path_7945" data-name="Path 7945" d="M10.895,35.239l1.712-6.251a12.067,12.067,0,1,1,10.456,6.042h-.005a12.057,12.057,0,0,1-5.766-1.469Zm6.693-3.861.366.217a10.016,10.016,0,0,0,5.1,1.4h0a10.029,10.029,0,1,0-8.5-4.7l.239.379-1.013,3.7Zm0,0" transform="translate(-10.353 -10.353)" fill="#fff"/>
    <path id="Path_7946" data-name="Path 7946" d="M19.344,42.885,21,36.85a11.649,11.649,0,1,1,10.094,5.833h-.005a11.647,11.647,0,0,1-5.566-1.417Zm0,0" transform="translate(-18.383 -18.42)" fill="#64b161"/>
    <g id="Group_1317" data-name="Group 1317" transform="translate(0.541 0.541)">
      <path id="Path_7947" data-name="Path 7947" d="M10.895,35.239l1.712-6.251a12.067,12.067,0,1,1,10.456,6.042h-.005a12.057,12.057,0,0,1-5.766-1.469Zm6.693-3.861.366.217a10.016,10.016,0,0,0,5.1,1.4h0a10.029,10.029,0,1,0-8.5-4.7l.239.379-1.013,3.7Zm0,0" transform="translate(-10.895 -10.895)" fill="#fff"/>
      <path id="Path_7948" data-name="Path 7948" d="M135.561,142.141c-.226-.5-.464-.512-.679-.521-.176-.008-.377-.007-.578-.007a1.108,1.108,0,0,0-.8.377,3.38,3.38,0,0,0-1.056,2.515,5.865,5.865,0,0,0,1.231,3.118,12.376,12.376,0,0,0,5.15,4.551c2.547,1,3.065.8,3.618.754a3.045,3.045,0,0,0,2.035-1.433,2.518,2.518,0,0,0,.176-1.434c-.075-.125-.276-.2-.578-.352s-1.784-.88-2.06-.981-.477-.151-.678.151-.779.98-.954,1.181-.352.227-.653.076a8.245,8.245,0,0,1-2.425-1.5,9.085,9.085,0,0,1-1.677-2.088c-.176-.3,0-.45.132-.615a9.091,9.091,0,0,0,.753-1.031.556.556,0,0,0-.025-.528C136.415,144.229,135.829,142.738,135.561,142.141Zm0,0" transform="translate(-126.409 -135.121)" fill="#fff"/>
    </g>
  </g>
</svg>
